#tb 0: 33/1000
#media_type 0: video
#codec_id 0: rawvideo
#dimensions 0: 720x496
#sar 0: 0/1
0,          0,          0,        1,   535680, 0x889c32cf
0,          1,          1,        1,   535680, 0x0b1ef044
0,          2,          2,        1,   535680, 0xa7d0818b
0,          3,          3,        1,   535680, 0xf392e4e1
0,          4,          4,        1,   535680, 0x08480c69
0,          5,          5,        1,   535680, 0x2b8af1ed
0,          6,          6,        1,   535680, 0x0d58e062
0,          7,          7,        1,   535680, 0xd140ced0
0,          8,          8,        1,   535680, 0xbd0e6652
0,          9,          9,        1,   535680, 0xdc2f2a6b
0,         10,         10,        1,   535680, 0x97c31a38
0,         11,         11,        1,   535680, 0x1a2bdf38
0,         12,         12,        1,   535680, 0xb3af3ac4
0,         13,         13,        1,   535680, 0x07a52577
0,         14,         14,        1,   535680, 0x78407368
0,         15,         15,        1,   535680, 0xd2a9efc3
0,         16,         16,        1,   535680, 0x36df2f29
0,         17,         17,        1,   535680, 0x9821d8f7
0,         18,         18,        1,   535680, 0xf64321aa
0,         19,         19,        1,   535680, 0x53e4d9aa
0,         20,         20,        1,   535680, 0xdbd6f853
0,         21,         21,        1,   535680, 0x5d40cf8b
0,         22,         22,        1,   535680, 0xe624af9d
0,         23,         23,        1,   535680, 0xd9dbb4cd
0,         24,         24,        1,   535680, 0xf14e72ec
0,         25,         25,        1,   535680, 0xb35c18f6
0,         26,         26,        1,   535680, 0xc96d7757
0,         27,         27,        1,   535680, 0xdfb937df
0,         28,         28,        1,   535680, 0x40cd71d7
0,         29,         29,        1,   535680, 0x15e176d6
0,         30,         30,        1,   535680, 0x7f891b24
0,         31,         31,        1,   535680, 0xb87a8c32
0,         32,         32,        1,   535680, 0x0c01541f
0,         33,         33,        1,   535680, 0x9eee99b3
0,         34,         34,        1,   535680, 0xd65eb689
0,         35,         35,        1,   535680, 0x6e733cfa
0,         36,         36,        1,   535680, 0xac536670
0,         37,         37,        1,   535680, 0x002275b8
0,         38,         38,        1,   535680, 0x6a5385cb
0,         39,         39,        1,   535680, 0xd129ade3
0,         40,         40,        1,   535680, 0x32cab5d7
0,         41,         41,        1,   535680, 0x08be1c8f
0,         42,         42,        1,   535680, 0x59e1fba0
0,         43,         43,        1,   535680, 0x138aee3a
0,         44,         44,        1,   535680, 0x4cfbcd5e
0,         45,         45,        1,   535680, 0xf6cf0fb4
0,         46,         46,        1,   535680, 0xb13a06de
0,         47,         47,        1,   535680, 0x59176f00
0,         48,         48,        1,   535680, 0xf84b4ca3
0,         49,         49,        1,   535680, 0x7fd09f73
0,         50,         50,        1,   535680, 0x3be383b8
0,         51,         51,        1,   535680, 0xa7118e51
0,         52,         52,        1,   535680, 0xbd83120c
0,         53,         53,        1,   535680, 0x3bc9d256
0,         54,         54,        1,   535680, 0xb6c87f87
0,         55,         55,        1,   535680, 0xe80d110a
0,         56,         56,        1,   535680, 0xb3a83362
0,         57,         57,        1,   535680, 0xfb39eb52
0,         58,         58,        1,   535680, 0xbf6e1220
0,         59,         59,        1,   535680, 0x9ecdfbae
0,         60,         60,        1,   535680, 0x069a65f5
0,         61,         61,        1,   535680, 0x206e372c
0,         62,         62,        1,   535680, 0x58c83dd4
0,         63,         63,        1,   535680, 0xc3562b03
0,         64,         64,        1,   535680, 0xd1ed85a0
0,         65,         65,        1,   535680, 0xb6205f4b
0,         66,         66,        1,   535680, 0xaedf8bfa
0,         67,         67,        1,   535680, 0xa48d5dea
0,         68,         68,        1,   535680, 0xff82e7c1
0,         69,         69,        1,   535680, 0xc9560222
0,         70,         70,        1,   535680, 0x0fafa549
0,         71,         71,        1,   535680, 0x8d556ccb
0,         72,         72,        1,   535680, 0x802aac1f
0,         73,         73,        1,   535680, 0x7d0fa168
0,         74,         74,        1,   535680, 0x1a9255c9
0,         75,         75,        1,   535680, 0xb4ec7e35
0,         76,         76,        1,   535680, 0x48fac072
0,         77,         77,        1,   535680, 0x1e260135
0,         78,         78,        1,   535680, 0xce4d5079
0,         79,         79,        1,   535680, 0x13e5e4ed
0,         80,         80,        1,   535680, 0x592305ec
0,         81,         81,        1,   535680, 0x9e227508
0,         82,         82,        1,   535680, 0x1d37e5ea
0,         83,         83,        1,   535680, 0x7eae7692
0,         84,         84,        1,   535680, 0xf452e4b9
0,         85,         85,        1,   535680, 0x1460e7e9
0,         86,         86,        1,   535680, 0xc6d8a638
0,         87,         87,        1,   535680, 0x854f5fb0
0,         88,         88,        1,   535680, 0x854f5fb0
0,         89,         89,        1,   535680, 0x70a02d87
0,         90,         90,        1,   535680, 0x9a4ad464
0,         91,         91,        1,   535680, 0x9a4ad464
0,         92,         92,        1,   535680, 0x9a4ad464
0,         93,         93,        1,   535680, 0x9a4ad464
0,         94,         94,        1,   535680, 0x9a4ad464
0,         95,         95,        1,   535680, 0x9a4ad464
